<svg xmlns="http://www.w3.org/2000/svg" width="1400" height="940" viewBox="0 0 1400 940">
<defs><linearGradient id="lg" x1="0" y1="0" x2="1" y2="1"><stop offset="0" stop-color="#15c3b6"/><stop offset=".55" stop-color="#2fd191"/><stop offset="1" stop-color="#54e06a"/></linearGradient><linearGradient id="lgh" x1="0" y1="0" x2="1" y2="0"><stop offset="0" stop-color="#15c3b6"/><stop offset=".55" stop-color="#2fd191"/><stop offset="1" stop-color="#54e06a"/></linearGradient><radialGradient id="glow" cx="82%" cy="2%" r="55%"><stop offset="0" stop-color="#2fd191" stop-opacity=".18"/><stop offset="1" stop-color="#2fd191" stop-opacity="0"/></radialGradient></defs>
<rect x="0" y="0" width="1400" height="940" rx="0" fill="#f2f8f5"/>
<rect x="0" y="0" width="1400" height="940" rx="0" fill="url(#glow)"/>
<g transform="translate(54,40) scale(0.029296875)" fill="none" stroke="url(#lg)" stroke-width="112" stroke-linecap="round" stroke-linejoin="round"><path d="M 348 258 C 214 315, 210 510, 326 594 C 414 658, 490 618, 550 558"/><path d="M 676 766 C 810 709, 814 514, 698 430 C 610 366, 534 406, 474 466"/></g>
<text x="96" y="62" font-family="Helvetica Neue, Helvetica, Arial, sans-serif" font-size="21" font-weight="800" fill="#0a1512" letter-spacing="2">LIDHRA</text>
<text x="212" y="62" font-family="Menlo, Consolas, monospace" font-size="14" font-weight="500" fill="#7a8a82">/ app designs</text>
<text x="1346" y="50" font-family="Helvetica Neue, Helvetica, Arial, sans-serif" font-size="26" font-weight="800" fill="#0c1a16" text-anchor="end">iOS + watchOS</text>
<text x="1346" y="74" font-family="Menlo, Consolas, monospace" font-size="13" font-weight="500" fill="#7a8a82" text-anchor="end">Liquid Glass · PWA remote</text>
<rect x="54" y="92" width="1292" height="4" rx="2" fill="url(#lgh)"/>
<g><rect x="120" y="140" width="300" height="610" rx="42" fill="#0c1712"/><rect x="131" y="151" width="278" height="588" rx="32" fill="#0a1a14"/><rect x="220.0" y="158" width="100" height="26" rx="13" fill="#05100b"/><text x="153" y="185" font-family="Menlo, Consolas, monospace" font-size="12" font-weight="700" fill="#fff">9:41</text><text x="389" y="185" font-family="Menlo, Consolas, monospace" font-size="11" font-weight="500" fill="#cfe8dd" text-anchor="end">5G · 100%</text><g transform="translate(149,201) scale(0.021484375)" fill="none" stroke="url(#lg)" stroke-width="112" stroke-linecap="round" stroke-linejoin="round"><path d="M 348 258 C 214 315, 210 510, 326 594 C 414 658, 490 618, 550 558"/><path d="M 676 766 C 810 709, 814 514, 698 430 C 610 366, 534 406, 474 466"/></g><text x="181" y="223" font-family="Helvetica Neue, Helvetica, Arial, sans-serif" font-size="21" font-weight="700" fill="#fff">Overview</text><rect x="149" y="237" width="242" height="26" rx="13" fill="none" stroke="#2b6f5c" stroke-width="1"/><circle cx="165" cy="250" r="4" fill="#54e06a"/><text x="177" y="254" font-family="Menlo, Consolas, monospace" font-size="10.5" font-weight="500" fill="#7ef0cf">Connected · home-pi.local · WireGuard</text><rect x="149" y="273" width="242" height="64" rx="16" fill="#12261e" stroke="#20362b" stroke-width="1"/><text x="165" y="295" font-family="Menlo, Consolas, monospace" font-size="10" font-weight="600" fill="#9fd8c4" letter-spacing="1">TOTAL SPEED</text><text x="165" y="323" font-family="Helvetica Neue, Helvetica, Arial, sans-serif" font-size="20" font-weight="800" fill="#22bd7a">↓ 12.4</text><text x="251" y="323" font-family="Helvetica Neue, Helvetica, Arial, sans-serif" font-size="11" font-weight="500" fill="#8fb3a7">MB/s</text><text x="309" y="323" font-family="Helvetica Neue, Helvetica, Arial, sans-serif" font-size="20" font-weight="800" fill="#17b6c2">↑ 2.1</text><text x="381" y="323" font-family="Helvetica Neue, Helvetica, Arial, sans-serif" font-size="11" font-weight="500" fill="#8fb3a7">MB/s</text><rect x="149" y="351" width="242" height="74" rx="16" fill="#12261e" stroke="#20362b" stroke-width="1"/><text x="165" y="375" font-family="Helvetica Neue, Helvetica, Arial, sans-serif" font-size="13" font-weight="600" fill="#eaf4ee">ubuntu-24.04.2.iso</text><text x="375" y="375" font-family="Menlo, Consolas, monospace" font-size="10.5" font-weight="600" fill="#7ef0cf" text-anchor="end">62%</text><rect x="165" y="385" width="210" height="6" rx="3.0" fill="#1d3a2f"/><rect x="165" y="385" width="130.2" height="6" rx="3.0" fill="#22bd7a"/><text x="165" y="409" font-family="Menlo, Consolas, monospace" font-size="10.5" font-weight="400" fill="#b3c8bf">↓ 12.4 MB/s</text><text x="375" y="409" font-family="Menlo, Consolas, monospace" font-size="10.5" font-weight="400" fill="#b3c8bf" text-anchor="end">14 min left</text><rect x="149" y="437" width="242" height="74" rx="16" fill="#12261e" stroke="#20362b" stroke-width="1"/><text x="165" y="461" font-family="Helvetica Neue, Helvetica, Arial, sans-serif" font-size="13" font-weight="600" fill="#eaf4ee">debian-13-netinst.iso</text><text x="375" y="461" font-family="Menlo, Consolas, monospace" font-size="10.5" font-weight="600" fill="#11d4a0" text-anchor="end">seed</text><rect x="165" y="471" width="210" height="6" rx="3.0" fill="#1d3a2f"/><rect x="165" y="471" width="210.0" height="6" rx="3.0" fill="#11a594"/><text x="165" y="495" font-family="Menlo, Consolas, monospace" font-size="10.5" font-weight="400" fill="#b3c8bf">↑ 2.1 MB/s</text><text x="375" y="495" font-family="Menlo, Consolas, monospace" font-size="10.5" font-weight="400" fill="#b3c8bf" text-anchor="end">ratio 3.4</text><rect x="147" y="681" width="246" height="44" rx="22" fill="#16342a" stroke="#264a3c" stroke-width="1"/><rect x="163.6" y="690" width="16" height="16" rx="5" fill="#54e06a"/><text x="171.6" y="719" font-family="Helvetica Neue, Helvetica, Arial, sans-serif" font-size="7.5" font-weight="600" fill="#54e06a" text-anchor="middle">Overview</text><rect x="212.79999999999998" y="690" width="16" height="16" rx="5" fill="#5b7a6e"/><text x="220.79999999999998" y="719" font-family="Helvetica Neue, Helvetica, Arial, sans-serif" font-size="7.5" font-weight="600" fill="#7f9a8e" text-anchor="middle">Transfers</text><rect x="262.0" y="690" width="16" height="16" rx="5" fill="#5b7a6e"/><text x="270.0" y="719" font-family="Helvetica Neue, Helvetica, Arial, sans-serif" font-size="7.5" font-weight="600" fill="#7f9a8e" text-anchor="middle">Activity</text><rect x="311.20000000000005" y="690" width="16" height="16" rx="5" fill="#5b7a6e"/><text x="319.20000000000005" y="719" font-family="Helvetica Neue, Helvetica, Arial, sans-serif" font-size="7.5" font-weight="600" fill="#7f9a8e" text-anchor="middle">Servers</text><rect x="360.40000000000003" y="690" width="16" height="16" rx="5" fill="#5b7a6e"/><text x="368.40000000000003" y="719" font-family="Helvetica Neue, Helvetica, Arial, sans-serif" font-size="7.5" font-weight="600" fill="#7f9a8e" text-anchor="middle">Settings</text><text x="120" y="784" font-family="Helvetica Neue, Helvetica, Arial, sans-serif" font-size="12.5" font-weight="400" fill="#46584f">iOS — installable PWA remote (App-Store-safe). Floating Liquid-Glass tab bar.</text><rect x="760" y="210" width="250" height="320" rx="70" fill="#161616"/><rect x="786" y="244" width="198" height="252" rx="48" fill="#000000"/><g transform="translate(810,264) scale(0.015625)" fill="none" stroke="url(#lg)" stroke-width="112" stroke-linecap="round" stroke-linejoin="round"><path d="M 348 258 C 214 315, 210 510, 326 594 C 414 658, 490 618, 550 558"/><path d="M 676 766 C 810 709, 814 514, 698 430 C 610 366, 534 406, 474 466"/></g><text x="834" y="277" font-family="Helvetica Neue, Helvetica, Arial, sans-serif" font-size="13" font-weight="700" fill="#54e06a">Lidhra</text><text x="960" y="277" font-family="Menlo, Consolas, monospace" font-size="12" font-weight="500" fill="#9fb3a9" text-anchor="end">10:09</text><text x="810" y="304" font-family="Menlo, Consolas, monospace" font-size="9.5" font-weight="600" fill="#9fd8c4" letter-spacing="1">TOTAL SPEED</text><text x="810" y="332" font-family="Helvetica Neue, Helvetica, Arial, sans-serif" font-size="22" font-weight="800" fill="#22bd7a">↓ 12.4</text><text x="906" y="332" font-family="Helvetica Neue, Helvetica, Arial, sans-serif" font-size="11" font-weight="400" fill="#8fb3a7">MB/s</text><text x="810" y="362" font-family="Helvetica Neue, Helvetica, Arial, sans-serif" font-size="22" font-weight="800" fill="#17b6c2">↑ 2.1</text><text x="906" y="362" font-family="Helvetica Neue, Helvetica, Arial, sans-serif" font-size="11" font-weight="400" fill="#8fb3a7">MB/s</text><line x1="810" y1="380" x2="960" y2="380" stroke="#243a31"/><text x="840" y="408" font-family="Helvetica Neue, Helvetica, Arial, sans-serif" font-size="22" font-weight="800" fill="#fff" text-anchor="middle">3</text><text x="840" y="426" font-family="Helvetica Neue, Helvetica, Arial, sans-serif" font-size="9.5" font-weight="400" fill="#8aa599" text-anchor="middle">Active</text><text x="930" y="408" font-family="Helvetica Neue, Helvetica, Arial, sans-serif" font-size="22" font-weight="800" fill="#11a594" text-anchor="middle">5</text><text x="930" y="426" font-family="Helvetica Neue, Helvetica, Arial, sans-serif" font-size="9.5" font-weight="400" fill="#8aa599" text-anchor="middle">Seeding</text><text x="885.0" y="564" font-family="Helvetica Neue, Helvetica, Arial, sans-serif" font-size="12.5" font-weight="400" fill="#46584f" text-anchor="middle">watchOS glance — the wrist is the fastest surface.</text></g>
<rect x="54" y="888" width="1292" height="1" fill="#d8e4dd"/>
<text x="54" y="912" font-family="Menlo, Consolas, monospace" font-size="13" font-weight="400" fill="#7a8a82">Lidhra — iOS + watchOS · App-Store-safe remote</text>
<text x="1346" y="912" font-family="Menlo, Consolas, monospace" font-size="12" font-weight="500" fill="#7a8a82" text-anchor="end">02 / 05  ·  Lidhra app designs</text>
</svg>