<svg xmlns="http://www.w3.org/2000/svg" width="2000" height="1250" viewBox="0 0 2000 1250"><defs>
<linearGradient id="g" x1="0" y1="0" x2="1" y2="1">
 <stop offset="0" stop-color="#15c3b6"/><stop offset=".55" stop-color="#2fd191"/><stop offset="1" stop-color="#54e06a"/></linearGradient>
<linearGradient id="gh" x1="0" y1="0" x2="1" y2="0">
 <stop offset="0" stop-color="#15c3b6"/><stop offset=".55" stop-color="#2fd191"/><stop offset="1" stop-color="#54e06a"/></linearGradient>
<linearGradient id="ink" x1="0" y1="0" x2="1" y2="1">
 <stop offset="0" stop-color="#07201b"/><stop offset="1" stop-color="#0a2a24"/></linearGradient>
<radialGradient id="glow" cx="80%" cy="6%" r="70%">
 <stop offset="0" stop-color="#2fd191" stop-opacity=".22"/><stop offset="1" stop-color="#2fd191" stop-opacity="0"/></radialGradient>
<radialGradient id="glowd" cx="82%" cy="0%" r="80%">
 <stop offset="0" stop-color="#2fd191" stop-opacity=".38"/><stop offset="1" stop-color="#2fd191" stop-opacity="0"/></radialGradient>
<filter id="sh" x="-20%" y="-20%" width="140%" height="150%">
 <feDropShadow dx="0" dy="26" stdDeviation="34" flood-color="#0a2a24" flood-opacity="0.22"/></filter>
</defs><rect width="2000" height="1250" fill="#f2f8f5"/><rect width="2000" height="1250" fill="url(#glow)"/><text x="1000" y="170" font-family="Helvetica Neue, Helvetica, Arial, sans-serif" font-size="78" font-weight="800" fill="#0a1512" text-anchor="middle">One clean home for every download.</text><text x="1000" y="250" font-family="Helvetica Neue, Helvetica, Arial, sans-serif" font-size="40" font-weight="400" fill="#46584f" text-anchor="middle">Native sidebar · live health bars · built in Rust.</text><g transform="translate(250,340) scale(1.5)"><g filter="url(#sh)"><rect x="0" y="0" width="1000" height="620" rx="18" fill="#ffffff" stroke="#d8e4dd"/></g><rect x="0" y="0" width="1000" height="52" rx="18" fill="#f6faf8"/><rect x="0" y="34" width="1000" height="18" fill="#ffffff"/><rect x="0" y="0" width="1000" height="620" rx="18" fill="none" stroke="#d8e4dd"/><circle cx="30" cy="26" r="8" fill="#ff5f57"/><circle cx="54" cy="26" r="8" fill="#febc2e"/><circle cx="78" cy="26" r="8" fill="#28c840"/><g transform="translate(112,12) scale(0.02734375)" fill="none" stroke="url(#g)" stroke-width="112" stroke-linecap="round" stroke-linejoin="round"><path d="M 348 258 C 214 315, 210 510, 326 594 C 414 658, 490 618, 550 558"/><path d="M 676 766 C 810 709, 814 514, 698 430 C 610 366, 534 406, 474 466"/></g><text x="150" y="32" font-family="Helvetica Neue, Helvetica, Arial, sans-serif" font-size="17" font-weight="700" fill="#0c1a16">Lidhra</text><text x="970" y="32" font-family="Menlo, Consolas, monospace" font-size="14" font-weight="500" fill="#7a8a82" text-anchor="end">↓ 12.4  ·  ↑ 2.1 MB/s</text><rect x="1" y="52" width="252" height="567" fill="#f9fcfa"/><line x1="253" y1="52" x2="253" y2="619" stroke="#d8e4dd"/><text x="30" y="96" font-family="Menlo, Consolas, monospace" font-size="13" font-weight="700" fill="#7a8a82" letter-spacing="1.8">LIBRARY</text><rect x="18" y="112" width="220" height="34" rx="9" fill="#dcf1e7"/><text x="34" y="134" font-family="Helvetica Neue, Helvetica, Arial, sans-serif" font-size="16" font-weight="600" fill="#0b8f79">◆ Overview</text><text x="226" y="134" font-family="Menlo, Consolas, monospace" font-size="13" font-weight="400" fill="#7a8a82" text-anchor="end">12</text><text x="34" y="174" font-family="Helvetica Neue, Helvetica, Arial, sans-serif" font-size="16" font-weight="400" fill="#46584f">◆ Transfers</text><text x="226" y="174" font-family="Menlo, Consolas, monospace" font-size="13" font-weight="400" fill="#7a8a82" text-anchor="end">3</text><text x="34" y="214" font-family="Helvetica Neue, Helvetica, Arial, sans-serif" font-size="16" font-weight="400" fill="#46584f">◆ Seeding</text><text x="226" y="214" font-family="Menlo, Consolas, monospace" font-size="13" font-weight="400" fill="#7a8a82" text-anchor="end">7</text><text x="34" y="254" font-family="Helvetica Neue, Helvetica, Arial, sans-serif" font-size="16" font-weight="400" fill="#46584f">◆ Paused</text><text x="226" y="254" font-family="Menlo, Consolas, monospace" font-size="13" font-weight="400" fill="#7a8a82" text-anchor="end">2</text><text x="30" y="302" font-family="Menlo, Consolas, monospace" font-size="13" font-weight="700" fill="#7a8a82" letter-spacing="1.8">CATEGORIES</text><text x="34" y="340" font-family="Helvetica Neue, Helvetica, Arial, sans-serif" font-size="16" font-weight="400" fill="#46584f">◆ Linux</text><text x="226" y="340" font-family="Menlo, Consolas, monospace" font-size="13" font-weight="400" fill="#7a8a82" text-anchor="end">8</text><text x="34" y="378" font-family="Helvetica Neue, Helvetica, Arial, sans-serif" font-size="16" font-weight="400" fill="#46584f">◆ Media</text><text x="226" y="378" font-family="Menlo, Consolas, monospace" font-size="13" font-weight="400" fill="#7a8a82" text-anchor="end">4</text><text x="34" y="416" font-family="Helvetica Neue, Helvetica, Arial, sans-serif" font-size="16" font-weight="400" fill="#46584f">◆ ISO images</text><text x="226" y="416" font-family="Menlo, Consolas, monospace" font-size="13" font-weight="400" fill="#7a8a82" text-anchor="end">6</text><rect x="18" y="548" width="220" height="52" rx="12" fill="#f6faf8" stroke="#d8e4dd"/><circle cx="44" cy="574" r="12" fill="url(#g)"/><text x="66" y="570" font-family="Helvetica Neue, Helvetica, Arial, sans-serif" font-size="13.5" font-weight="600" fill="#0c1a16">Real-Debrid</text><text x="66" y="588" font-family="Menlo, Consolas, monospace" font-size="11.5" font-weight="400" fill="#0b8f79">connected</text><rect x="282" y="80" width="86" height="34" rx="9" fill="url(#gh)"/><text x="325" y="102" font-family="Helvetica Neue, Helvetica, Arial, sans-serif" font-size="14.5" font-weight="700" fill="#06251b" text-anchor="middle">+ Add</text><rect x="378" y="80" width="96" height="34" rx="9" fill="#eef4f0" stroke="#d8e4dd"/><text x="426" y="102" font-family="Helvetica Neue, Helvetica, Arial, sans-serif" font-size="13" font-weight="400" fill="#46584f" text-anchor="middle">Pause all</text><text x="968" y="96" font-family="Menlo, Consolas, monospace" font-size="13" font-weight="400" fill="#7a8a82" text-anchor="end">⌘F  Filter…</text><text x="968" y="118" font-family="Menlo, Consolas, monospace" font-size="12" font-weight="400" fill="#7a8a82" text-anchor="end">3 active · 7 seeding</text><text x="282" y="150" font-family="Helvetica Neue, Helvetica, Arial, sans-serif" font-size="15.5" font-weight="600" fill="#0c1a16">ubuntu-24.04.2-desktop-amd64.iso</text><text x="282" y="170" font-family="Menlo, Consolas, monospace" font-size="12.5" font-weight="400" fill="#7a8a82">4.7 GB · 62% · 214 peers</text><rect x="282" y="180" width="560" height="7" rx="3.5" fill="#c9d8d0"/><rect x="282" y="180" width="347" height="7" rx="3.5" fill="#22bd7a"/><text x="968" y="152" font-family="Menlo, Consolas, monospace" font-size="14" font-weight="600" fill="#22bd7a" text-anchor="end">12.4 MB/s</text><text x="968" y="172" font-family="Menlo, Consolas, monospace" font-size="12.5" font-weight="400" fill="#7a8a82" text-anchor="end">14m</text><line x1="282" y1="202" x2="968" y2="202" stroke="#d8e4dd"/><text x="282" y="224" font-family="Helvetica Neue, Helvetica, Arial, sans-serif" font-size="15.5" font-weight="600" fill="#0c1a16">debian-13-netinst.iso</text><text x="282" y="244" font-family="Menlo, Consolas, monospace" font-size="12.5" font-weight="400" fill="#7a8a82">631 MB · seeding · ratio 3.4</text><rect x="282" y="254" width="560" height="7" rx="3.5" fill="#c9d8d0"/><rect x="282" y="254" width="560" height="7" rx="3.5" fill="#11a594"/><text x="968" y="226" font-family="Menlo, Consolas, monospace" font-size="14" font-weight="600" fill="#11a594" text-anchor="end">↑ 2.1</text><text x="968" y="246" font-family="Menlo, Consolas, monospace" font-size="12.5" font-weight="400" fill="#7a8a82" text-anchor="end">∞</text><line x1="282" y1="276" x2="968" y2="276" stroke="#d8e4dd"/><text x="282" y="298" font-family="Helvetica Neue, Helvetica, Arial, sans-serif" font-size="15.5" font-weight="600" fill="#0c1a16">blender-4.6-linux-x64.tar.xz</text><text x="282" y="318" font-family="Menlo, Consolas, monospace" font-size="12.5" font-weight="400" fill="#7a8a82">312 MB · 88% · direct link</text><rect x="282" y="328" width="560" height="7" rx="3.5" fill="#c9d8d0"/><rect x="282" y="328" width="493" height="7" rx="3.5" fill="#22bd7a"/><text x="968" y="300" font-family="Menlo, Consolas, monospace" font-size="14" font-weight="600" fill="#22bd7a" text-anchor="end">9.7 MB/s</text><text x="968" y="320" font-family="Menlo, Consolas, monospace" font-size="12.5" font-weight="400" fill="#7a8a82" text-anchor="end">22s</text><line x1="282" y1="350" x2="968" y2="350" stroke="#d8e4dd"/><text x="282" y="372" font-family="Helvetica Neue, Helvetica, Arial, sans-serif" font-size="15.5" font-weight="600" fill="#0c1a16">archlinux-2026.07.01-x86_64.iso</text><text x="282" y="392" font-family="Menlo, Consolas, monospace" font-size="12.5" font-weight="400" fill="#7a8a82">1.1 GB · paused · 88%</text><rect x="282" y="402" width="560" height="7" rx="3.5" fill="#c9d8d0"/><rect x="282" y="402" width="493" height="7" rx="3.5" fill="#8a94a8"/><text x="968" y="374" font-family="Menlo, Consolas, monospace" font-size="14" font-weight="600" fill="#8a94a8" text-anchor="end">-</text><text x="968" y="394" font-family="Menlo, Consolas, monospace" font-size="12.5" font-weight="400" fill="#7a8a82" text-anchor="end">-</text><line x1="282" y1="424" x2="968" y2="424" stroke="#d8e4dd"/></g></svg>