<svg xmlns="http://www.w3.org/2000/svg" width="2000" height="1250" viewBox="0 0 2000 1250"><defs>
<linearGradient id="g" x1="0" y1="0" x2="1" y2="1">
 <stop offset="0" stop-color="#15c3b6"/><stop offset=".55" stop-color="#2fd191"/><stop offset="1" stop-color="#54e06a"/></linearGradient>
<linearGradient id="gh" x1="0" y1="0" x2="1" y2="0">
 <stop offset="0" stop-color="#15c3b6"/><stop offset=".55" stop-color="#2fd191"/><stop offset="1" stop-color="#54e06a"/></linearGradient>
<linearGradient id="ink" x1="0" y1="0" x2="1" y2="1">
 <stop offset="0" stop-color="#07201b"/><stop offset="1" stop-color="#0a2a24"/></linearGradient>
<radialGradient id="glow" cx="80%" cy="6%" r="70%">
 <stop offset="0" stop-color="#2fd191" stop-opacity=".22"/><stop offset="1" stop-color="#2fd191" stop-opacity="0"/></radialGradient>
<radialGradient id="glowd" cx="82%" cy="0%" r="80%">
 <stop offset="0" stop-color="#2fd191" stop-opacity=".38"/><stop offset="1" stop-color="#2fd191" stop-opacity="0"/></radialGradient>
<filter id="sh" x="-20%" y="-20%" width="140%" height="150%">
 <feDropShadow dx="0" dy="26" stdDeviation="34" flood-color="#0a2a24" flood-opacity="0.22"/></filter>
</defs><rect width="2000" height="1250" fill="#f2f8f5"/><rect width="2000" height="1250" fill="url(#glow)"/><text x="1000" y="170" font-family="Helvetica Neue, Helvetica, Arial, sans-serif" font-size="78" font-weight="800" fill="#0a1512" text-anchor="middle">7-day trial, then yours.</text><text x="1000" y="250" font-family="Helvetica Neue, Helvetica, Arial, sans-serif" font-size="40" font-weight="400" fill="#46584f" text-anchor="middle">One licence, auto-updates, every platform.</text><rect x="620" y="420" width="760" height="470" rx="36" fill="#ffffff" stroke="#d8e4dd" filter="url(#sh)"/><g transform="translate(910,470) scale(0.17578125)" fill="none" stroke="url(#g)" stroke-width="112" stroke-linecap="round" stroke-linejoin="round"><path d="M 348 258 C 214 315, 210 510, 326 594 C 414 658, 490 618, 550 558"/><path d="M 676 766 C 810 709, 814 514, 698 430 C 610 366, 534 406, 474 466"/></g><text x="1000" y="720" font-family="Helvetica Neue, Helvetica, Arial, sans-serif" font-size="66" font-weight="800" fill="#0c1a16" text-anchor="middle">7 days free</text><text x="1000" y="792" font-family="Helvetica Neue, Helvetica, Arial, sans-serif" font-size="40" font-weight="500" fill="#46584f" text-anchor="middle">then €4.99 · yours forever</text><text x="1000" y="852" font-family="Menlo, Consolas, monospace" font-size="28" font-weight="400" fill="#7a8a82" text-anchor="middle">one licence · auto-updates · all platforms</text></svg>