<svg xmlns="http://www.w3.org/2000/svg" width="1290" height="2796" viewBox="0 0 1290 2796"><defs>
<linearGradient id="g" x1="0" y1="0" x2="1" y2="1">
 <stop offset="0" stop-color="#15c3b6"/><stop offset=".55" stop-color="#2fd191"/><stop offset="1" stop-color="#54e06a"/></linearGradient>
<linearGradient id="gh" x1="0" y1="0" x2="1" y2="0">
 <stop offset="0" stop-color="#15c3b6"/><stop offset=".55" stop-color="#2fd191"/><stop offset="1" stop-color="#54e06a"/></linearGradient>
<linearGradient id="ink" x1="0" y1="0" x2="1" y2="1">
 <stop offset="0" stop-color="#07201b"/><stop offset="1" stop-color="#0a2a24"/></linearGradient>
<radialGradient id="glow" cx="80%" cy="6%" r="70%">
 <stop offset="0" stop-color="#2fd191" stop-opacity=".22"/><stop offset="1" stop-color="#2fd191" stop-opacity="0"/></radialGradient>
<radialGradient id="glowd" cx="82%" cy="0%" r="80%">
 <stop offset="0" stop-color="#2fd191" stop-opacity=".38"/><stop offset="1" stop-color="#2fd191" stop-opacity="0"/></radialGradient>
<filter id="sh" x="-20%" y="-20%" width="140%" height="150%">
 <feDropShadow dx="0" dy="26" stdDeviation="34" flood-color="#0a2a24" flood-opacity="0.22"/></filter>
</defs><rect width="1290" height="2796" fill="url(#ink)"/><rect width="1290" height="2796" fill="url(#glowd)"/><text x="645" y="230" font-family="Helvetica Neue, Helvetica, Arial, sans-serif" font-size="82" font-weight="800" fill="#ffffff" text-anchor="middle">Debrid-powered.</text><text x="645" y="320" font-family="Helvetica Neue, Helvetica, Arial, sans-serif" font-size="40" font-weight="400" fill="#bfe9d8" text-anchor="middle">App-Store-clean.</text><g filter="url(#sh)"><rect x="122" y="444" width="1046" height="2204" rx="80" fill="#0a1512"/></g><clipPath id="phappstore_ios_02_debrid"><rect x="148" y="470" width="994" height="2152" rx="52"/></clipPath><g clip-path="url(#phappstore_ios_02_debrid)"><g transform="translate(148,470) scale(2.55)"><rect x="0" y="0" width="390" height="844" rx="0" fill="#f2f8f5"/><rect x="0" y="0" width="390" height="844" fill="url(#glow)"/><text x="24" y="40" font-family="Menlo, Consolas, monospace" font-size="15" font-weight="700" fill="#0c1a16">9:41</text><text x="366" y="40" font-family="Menlo, Consolas, monospace" font-size="12.5" font-weight="500" fill="#7a8a82" text-anchor="end">↓ 12.4  ↑ 2.1</text><g transform="translate(24,66) scale(0.029296875)" fill="none" stroke="url(#g)" stroke-width="112" stroke-linecap="round" stroke-linejoin="round"><path d="M 348 258 C 214 315, 210 510, 326 594 C 414 658, 490 618, 550 558"/><path d="M 676 766 C 810 709, 814 514, 698 430 C 610 366, 534 406, 474 466"/></g><text x="62" y="92" font-family="Helvetica Neue, Helvetica, Arial, sans-serif" font-size="26" font-weight="800" fill="#0c1a16">Lidhra</text><circle cx="356" cy="84" r="18" fill="url(#g)"/><text x="356" y="91" font-family="Helvetica Neue, Helvetica, Arial, sans-serif" font-size="22" font-weight="700" fill="#06251b" text-anchor="middle">+</text><rect x="24" y="112" width="342" height="40" rx="12" fill="#e7f1ec"/><rect x="27" y="115" width="112" height="34" rx="10" fill="#ffffff" stroke="#d8e4dd"/><text x="83" y="137" font-family="Helvetica Neue, Helvetica, Arial, sans-serif" font-size="14" font-weight="600" fill="#0c1a16" text-anchor="middle">Active</text><text x="197" y="137" font-family="Helvetica Neue, Helvetica, Arial, sans-serif" font-size="14" font-weight="400" fill="#7a8a82" text-anchor="middle">Seeding</text><text x="311" y="137" font-family="Helvetica Neue, Helvetica, Arial, sans-serif" font-size="14" font-weight="400" fill="#7a8a82" text-anchor="middle">Done</text><rect x="24" y="176" width="342" height="104" rx="18" fill="#ffffff" stroke="#d8e4dd"/><rect x="40" y="196" width="34" height="34" rx="9" fill="#22bd7a"/><text x="88" y="210" font-family="Helvetica Neue, Helvetica, Arial, sans-serif" font-size="15" font-weight="600" fill="#0c1a16">ubuntu-24.04.iso</text><text x="88" y="230" font-family="Menlo, Consolas, monospace" font-size="12.5" font-weight="400" fill="#7a8a82">4.7 GB · 62%</text><rect x="40" y="248" width="310" height="7" rx="3.5" fill="#c9d8d0"/><rect x="40" y="248" width="192" height="7" rx="3.5" fill="#22bd7a"/><text x="350" y="210" font-family="Menlo, Consolas, monospace" font-size="12.5" font-weight="600" fill="#22bd7a" text-anchor="end">12.4 MB/s</text><text x="350" y="230" font-family="Menlo, Consolas, monospace" font-size="11.5" font-weight="400" fill="#7a8a82" text-anchor="end">14 min</text><rect x="24" y="296" width="342" height="104" rx="18" fill="#ffffff" stroke="#d8e4dd"/><rect x="40" y="316" width="34" height="34" rx="9" fill="#11a594"/><text x="88" y="330" font-family="Helvetica Neue, Helvetica, Arial, sans-serif" font-size="15" font-weight="600" fill="#0c1a16">debian-13.iso</text><text x="88" y="350" font-family="Menlo, Consolas, monospace" font-size="12.5" font-weight="400" fill="#7a8a82">seeding · ratio 3.4</text><rect x="40" y="368" width="310" height="7" rx="3.5" fill="#c9d8d0"/><rect x="40" y="368" width="310" height="7" rx="3.5" fill="#11a594"/><text x="350" y="330" font-family="Menlo, Consolas, monospace" font-size="12.5" font-weight="600" fill="#11a594" text-anchor="end">↑ 2.1 MB/s</text><text x="350" y="350" font-family="Menlo, Consolas, monospace" font-size="11.5" font-weight="400" fill="#7a8a82" text-anchor="end">∞</text><rect x="24" y="416" width="342" height="104" rx="18" fill="#ffffff" stroke="#d8e4dd"/><rect x="40" y="436" width="34" height="34" rx="9" fill="#22bd7a"/><text x="88" y="450" font-family="Helvetica Neue, Helvetica, Arial, sans-serif" font-size="15" font-weight="600" fill="#0c1a16">blender-4.6.tar.xz</text><text x="88" y="470" font-family="Menlo, Consolas, monospace" font-size="12.5" font-weight="400" fill="#7a8a82">88% · direct link</text><rect x="40" y="488" width="310" height="7" rx="3.5" fill="#c9d8d0"/><rect x="40" y="488" width="273" height="7" rx="3.5" fill="#22bd7a"/><text x="350" y="450" font-family="Menlo, Consolas, monospace" font-size="12.5" font-weight="600" fill="#22bd7a" text-anchor="end">9.7 MB/s</text><text x="350" y="470" font-family="Menlo, Consolas, monospace" font-size="11.5" font-weight="400" fill="#7a8a82" text-anchor="end">22 sec</text><rect x="24" y="536" width="342" height="104" rx="18" fill="#ffffff" stroke="#d8e4dd"/><rect x="40" y="556" width="34" height="34" rx="9" fill="#8a94a8"/><text x="88" y="570" font-family="Helvetica Neue, Helvetica, Arial, sans-serif" font-size="15" font-weight="600" fill="#0c1a16">fedora-40-ws.iso</text><text x="88" y="590" font-family="Menlo, Consolas, monospace" font-size="12.5" font-weight="400" fill="#7a8a82">paused · 40%</text><rect x="40" y="608" width="310" height="7" rx="3.5" fill="#c9d8d0"/><rect x="40" y="608" width="124" height="7" rx="3.5" fill="#8a94a8"/><text x="350" y="570" font-family="Menlo, Consolas, monospace" font-size="12.5" font-weight="600" fill="#8a94a8" text-anchor="end">paused</text><text x="350" y="590" font-family="Menlo, Consolas, monospace" font-size="11.5" font-weight="400" fill="#7a8a82" text-anchor="end">-</text><rect x="0" y="768" width="390" height="76" fill="#ffffff"/><line x1="0" y1="768" x2="390" y2="768" stroke="#d8e4dd"/><circle cx="65" cy="798" r="6" fill="#0b8f79"/><text x="65" y="826" font-family="Helvetica Neue, Helvetica, Arial, sans-serif" font-size="12" font-weight="600" fill="#0b8f79" text-anchor="middle">Transfers</text><circle cx="195" cy="798" r="6" fill="#7a8a82"/><text x="195" y="826" font-family="Helvetica Neue, Helvetica, Arial, sans-serif" font-size="12" font-weight="400" fill="#7a8a82" text-anchor="middle">Seeding</text><circle cx="325" cy="798" r="6" fill="#7a8a82"/><text x="325" y="826" font-family="Helvetica Neue, Helvetica, Arial, sans-serif" font-size="12" font-weight="400" fill="#7a8a82" text-anchor="middle">Account</text><rect x="150" y="832" width="90" height="5" rx="2.5" fill="#c9d8d0"/></g></g></svg>