<svg xmlns="http://www.w3.org/2000/svg" width="1400" height="940" viewBox="0 0 1400 940">
<defs><linearGradient id="lg" x1="0" y1="0" x2="1" y2="1"><stop offset="0" stop-color="#15c3b6"/><stop offset=".55" stop-color="#2fd191"/><stop offset="1" stop-color="#54e06a"/></linearGradient><linearGradient id="lgh" x1="0" y1="0" x2="1" y2="0"><stop offset="0" stop-color="#15c3b6"/><stop offset=".55" stop-color="#2fd191"/><stop offset="1" stop-color="#54e06a"/></linearGradient><radialGradient id="glow" cx="82%" cy="2%" r="55%"><stop offset="0" stop-color="#2fd191" stop-opacity=".18"/><stop offset="1" stop-color="#2fd191" stop-opacity="0"/></radialGradient></defs>
<rect x="0" y="0" width="1400" height="940" rx="0" fill="#f2f8f5"/>
<rect x="0" y="0" width="1400" height="940" rx="0" fill="url(#glow)"/>
<g transform="translate(54,40) scale(0.3)" fill="none" stroke="url(#lg)" stroke-width="14" stroke-linecap="round"><path d="M43.5 59.7 A20 20 0 1 0 59.7 43.5"/><path d="M56.5 40.3 A20 20 0 1 0 40.3 56.5"/></g>
<text x="96" y="62" font-family="Helvetica Neue, Helvetica, Arial, sans-serif" font-size="21" font-weight="800" fill="#0a1512" letter-spacing="2">LIDHRA</text>
<text x="212" y="62" font-family="Menlo, Consolas, monospace" font-size="14" font-weight="500" fill="#7a8a82">/ app designs</text>
<text x="1346" y="50" font-family="Helvetica Neue, Helvetica, Arial, sans-serif" font-size="26" font-weight="800" fill="#0c1a16" text-anchor="end">macOS</text>
<text x="1346" y="74" font-family="Menlo, Consolas, monospace" font-size="13" font-weight="500" fill="#7a8a82" text-anchor="end">Liquid Glass · menu-bar + window</text>
<rect x="54" y="92" width="1292" height="4" rx="2" fill="url(#lgh)"/>
<g><rect x="90" y="150" width="360" height="26" rx="8" fill="#eef4f0" stroke="#d8e4dd" stroke-width="1"/><text x="434" y="168" font-family="Menlo, Consolas, monospace" font-size="12" font-weight="500" fill="#46584f" text-anchor="end">9:41</text><g transform="translate(300,155) scale(0.16)" fill="none" stroke="url(#lg)" stroke-width="14" stroke-linecap="round"><path d="M43.5 59.7 A20 20 0 1 0 59.7 43.5"/><path d="M56.5 40.3 A20 20 0 1 0 40.3 56.5"/></g><text x="392" y="168" font-family="Menlo, Consolas, monospace" font-size="11" font-weight="500" fill="#7a8a82" text-anchor="end">100%</text><rect x="90" y="184" width="360" height="290" rx="18" fill="#ffffff" stroke="#e6efe9" stroke-width="1"/><rect x="90" y="184" width="360" height="290" rx="18" fill="url(#glow)"/><g transform="translate(106,198) scale(0.18)" fill="none" stroke="url(#lg)" stroke-width="14" stroke-linecap="round"><path d="M43.5 59.7 A20 20 0 1 0 59.7 43.5"/><path d="M56.5 40.3 A20 20 0 1 0 40.3 56.5"/></g><text x="132" y="212" font-family="Helvetica Neue, Helvetica, Arial, sans-serif" font-size="15" font-weight="700" fill="#0c1a16">Lidhra</text><rect x="312" y="196" width="122" height="22" rx="11" fill="#dbf3e8"/><text x="373" y="211" font-family="Menlo, Consolas, monospace" font-size="11" font-weight="600" fill="#0b8f79" text-anchor="middle">↓ 12.4 · ↑ 2.1</text><rect x="100" y="236" width="340" height="58" rx="10" fill="#f6faf8"/><rect x="110" y="249" width="30" height="30" rx="8" fill="#22bd7a"/><text x="148" y="258" font-family="Helvetica Neue, Helvetica, Arial, sans-serif" font-size="12.5" font-weight="600" fill="#0c1a16">ubuntu-24.04.2-desktop-amd64.i</text><text x="148" y="274" font-family="Menlo, Consolas, monospace" font-size="10.5" font-weight="400" fill="#7a8a82">62% · 14 min left</text><text x="430" y="258" font-family="Menlo, Consolas, monospace" font-size="11" font-weight="600" fill="#22bd7a" text-anchor="end">12.4 MB/s</text><rect x="148" y="280" width="272" height="6" rx="3.0" fill="#c9d8d0"/><rect x="148" y="280" width="168.6" height="6" rx="3.0" fill="#22bd7a"/><rect x="100" y="302" width="340" height="58" rx="10" fill="#f6faf8"/><rect x="110" y="315" width="30" height="30" rx="8" fill="#11a594"/><text x="148" y="324" font-family="Helvetica Neue, Helvetica, Arial, sans-serif" font-size="12.5" font-weight="600" fill="#0c1a16">debian-13-netinst.iso</text><text x="148" y="340" font-family="Menlo, Consolas, monospace" font-size="10.5" font-weight="400" fill="#7a8a82">Seeding · ratio 3.4</text><text x="430" y="324" font-family="Menlo, Consolas, monospace" font-size="11" font-weight="600" fill="#11a594" text-anchor="end">↑ 2.1 MB/s</text><rect x="148" y="346" width="272" height="6" rx="3.0" fill="#c9d8d0"/><rect x="148" y="346" width="272.0" height="6" rx="3.0" fill="#11a594"/><rect x="100" y="368" width="340" height="58" rx="10" fill="#f6faf8"/><rect x="110" y="381" width="30" height="30" rx="8" fill="#aeb8b2"/><text x="148" y="390" font-family="Helvetica Neue, Helvetica, Arial, sans-serif" font-size="12.5" font-weight="600" fill="#0c1a16">archlinux-2026.07.01-x86_64.is</text><text x="148" y="406" font-family="Menlo, Consolas, monospace" font-size="10.5" font-weight="400" fill="#7a8a82">Paused · 88%</text><text x="430" y="390" font-family="Menlo, Consolas, monospace" font-size="11" font-weight="600" fill="#7a8a82" text-anchor="end">—</text><rect x="148" y="412" width="272" height="6" rx="3.0" fill="#c9d8d0"/><rect x="148" y="412" width="239.4" height="6" rx="3.0" fill="#8a94a8"/><rect x="104" y="436" width="332" height="1" fill="#d8e4dd"/><text x="108" y="456" font-family="Helvetica Neue, Helvetica, Arial, sans-serif" font-size="12" font-weight="400" fill="#46584f">3 active · 1 paused</text><rect x="364" y="442" width="70" height="24" rx="12" fill="url(#lgh)"/><text x="399" y="458" font-family="Helvetica Neue, Helvetica, Arial, sans-serif" font-size="12" font-weight="700" fill="#06251b" text-anchor="middle">+ Add</text><text x="90" y="508" font-family="Helvetica Neue, Helvetica, Arial, sans-serif" font-size="12.5" font-weight="400" fill="#46584f">Menu-bar glance — Liquid Glass panel hangs from the bar.</text><rect x="540" y="150" width="760" height="470" rx="14" fill="#ffffff" stroke="#d8e4dd" stroke-width="1"/><rect x="540" y="150" width="760" height="40" rx="14" fill="#f6faf8"/><rect x="540" y="176" width="760" height="14" rx="0" fill="#ffffff"/><rect x="540" y="150" width="760" height="470" rx="14" fill="none" stroke="#d8e4dd" stroke-width="1"/><circle cx="562" cy="170" r="6.5" fill="#ff5f57"/><circle cx="582" cy="170" r="6.5" fill="#febc2e"/><circle cx="602" cy="170" r="6.5" fill="#28c840"/><g transform="translate(626,158) scale(0.16)" fill="none" stroke="url(#lg)" stroke-width="14" stroke-linecap="round"><path d="M43.5 59.7 A20 20 0 1 0 59.7 43.5"/><path d="M56.5 40.3 A20 20 0 1 0 40.3 56.5"/></g><text x="652" y="175" font-family="Helvetica Neue, Helvetica, Arial, sans-serif" font-size="13" font-weight="700" fill="#0c1a16">Lidhra</text><text x="1282" y="175" font-family="Menlo, Consolas, monospace" font-size="11" font-weight="400" fill="#7a8a82" text-anchor="end">⌘F  Filter…</text><line x1="540" y1="190" x2="540" y2="620" stroke="none"/><rect x="540" y="190" width="190" height="430" fill="#f9fcfa"/><line x1="730" y1="190" x2="730" y2="620" stroke="#d8e4dd"/><text x="560" y="216" font-family="Menlo, Consolas, monospace" font-size="10" font-weight="700" fill="#7a8a82" letter-spacing="1.4">LIBRARY</text><rect x="552" y="225" width="166" height="26" rx="7" fill="#dcf1e7"/><text x="562" y="242" font-family="Helvetica Neue, Helvetica, Arial, sans-serif" font-size="12.5" font-weight="600" fill="#0b8f79">◆ Overview</text><text x="710" y="242" font-family="Menlo, Consolas, monospace" font-size="10.5" font-weight="400" fill="#7a8a82" text-anchor="end">12</text><text x="562" y="272" font-family="Helvetica Neue, Helvetica, Arial, sans-serif" font-size="12.5" font-weight="400" fill="#46584f">◆ Transfers</text><text x="710" y="272" font-family="Menlo, Consolas, monospace" font-size="10.5" font-weight="400" fill="#7a8a82" text-anchor="end">3</text><text x="562" y="302" font-family="Helvetica Neue, Helvetica, Arial, sans-serif" font-size="12.5" font-weight="400" fill="#46584f">◆ Seeding</text><text x="710" y="302" font-family="Menlo, Consolas, monospace" font-size="10.5" font-weight="400" fill="#7a8a82" text-anchor="end">7</text><text x="562" y="332" font-family="Helvetica Neue, Helvetica, Arial, sans-serif" font-size="12.5" font-weight="400" fill="#46584f">◆ Paused</text><text x="710" y="332" font-family="Menlo, Consolas, monospace" font-size="10.5" font-weight="400" fill="#7a8a82" text-anchor="end">2</text><text x="560" y="360" font-family="Menlo, Consolas, monospace" font-size="10" font-weight="700" fill="#7a8a82" letter-spacing="1.4">CATEGORIES</text><text x="562" y="386" font-family="Helvetica Neue, Helvetica, Arial, sans-serif" font-size="12.5" font-weight="400" fill="#46584f">◆ Linux</text><text x="710" y="386" font-family="Menlo, Consolas, monospace" font-size="10.5" font-weight="400" fill="#7a8a82" text-anchor="end">8</text><text x="562" y="416" font-family="Helvetica Neue, Helvetica, Arial, sans-serif" font-size="12.5" font-weight="400" fill="#46584f">◆ Media</text><text x="710" y="416" font-family="Menlo, Consolas, monospace" font-size="10.5" font-weight="400" fill="#7a8a82" text-anchor="end">4</text><rect x="752" y="208" width="64" height="26" rx="8" fill="url(#lgh)"/><text x="784" y="225" font-family="Helvetica Neue, Helvetica, Arial, sans-serif" font-size="12" font-weight="700" fill="#06251b" text-anchor="middle">+ Add</text><rect x="824" y="208" width="74" height="26" rx="8" fill="#eef4f0" stroke="#d8e4dd" stroke-width="1"/><text x="861" y="225" font-family="Helvetica Neue, Helvetica, Arial, sans-serif" font-size="11" font-weight="400" fill="#46584f" text-anchor="middle">Pause all</text><text x="1270" y="225" font-family="Menlo, Consolas, monospace" font-size="11" font-weight="500" fill="#7a8a82" text-anchor="end">↓ 12.4 · ↑ 2.1 MB/s</text><text x="752" y="258" font-family="Helvetica Neue, Helvetica, Arial, sans-serif" font-size="13.5" font-weight="600" fill="#0c1a16">ubuntu-24.04.2-desktop-amd64.iso</text><text x="752" y="275" font-family="Menlo, Consolas, monospace" font-size="11" font-weight="400" fill="#7a8a82">4.7 GB · 62% · 214 peers</text><rect x="752" y="283" width="356" height="6" rx="3.0" fill="#c9d8d0"/><rect x="752" y="283" width="220.7" height="6" rx="3.0" fill="#22bd7a"/><text x="1278" y="264" font-family="Menlo, Consolas, monospace" font-size="12.5" font-weight="600" fill="#22bd7a" text-anchor="end">12.4 MB/s</text><text x="1278" y="282" font-family="Menlo, Consolas, monospace" font-size="11" font-weight="400" fill="#7a8a82" text-anchor="end">14m</text><line x1="752" y1="298" x2="1278" y2="298" stroke="#d8e4dd"/><text x="752" y="316" font-family="Helvetica Neue, Helvetica, Arial, sans-serif" font-size="13.5" font-weight="600" fill="#0c1a16">debian-13-netinst.iso</text><text x="752" y="333" font-family="Menlo, Consolas, monospace" font-size="11" font-weight="400" fill="#7a8a82">631 MB · seeding · ratio 3.4</text><rect x="752" y="341" width="356" height="6" rx="3.0" fill="#c9d8d0"/><rect x="752" y="341" width="356.0" height="6" rx="3.0" fill="#11a594"/><text x="1278" y="322" font-family="Menlo, Consolas, monospace" font-size="12.5" font-weight="600" fill="#11a594" text-anchor="end">↑ 2.1</text><text x="1278" y="340" font-family="Menlo, Consolas, monospace" font-size="11" font-weight="400" fill="#7a8a82" text-anchor="end">∞</text><line x1="752" y1="356" x2="1278" y2="356" stroke="#d8e4dd"/><text x="752" y="374" font-family="Helvetica Neue, Helvetica, Arial, sans-serif" font-size="13.5" font-weight="600" fill="#0c1a16">archlinux-2026.07.01-x86_64.iso</text><text x="752" y="391" font-family="Menlo, Consolas, monospace" font-size="11" font-weight="400" fill="#7a8a82">1.1 GB · paused · 88%</text><rect x="752" y="399" width="356" height="6" rx="3.0" fill="#c9d8d0"/><rect x="752" y="399" width="313.3" height="6" rx="3.0" fill="#8a94a8"/><text x="1278" y="380" font-family="Menlo, Consolas, monospace" font-size="12.5" font-weight="600" fill="#7a8a82" text-anchor="end">—</text><text x="1278" y="398" font-family="Menlo, Consolas, monospace" font-size="11" font-weight="400" fill="#7a8a82" text-anchor="end">—</text><line x1="752" y1="414" x2="1278" y2="414" stroke="#d8e4dd"/><text x="540" y="654" font-family="Helvetica Neue, Helvetica, Arial, sans-serif" font-size="12.5" font-weight="400" fill="#46584f">Full window — native sidebar, traffic lights, one health-bar per item.</text></g>
<rect x="54" y="888" width="1292" height="1" fill="#d8e4dd"/>
<text x="54" y="912" font-family="Menlo, Consolas, monospace" font-size="13" font-weight="400" fill="#7a8a82">Lidhra — macOS · concept mockup · not affiliated with qBittorrent</text>
<text x="1346" y="912" font-family="Menlo, Consolas, monospace" font-size="12" font-weight="500" fill="#7a8a82" text-anchor="end">01 / 05  ·  Lidhra app designs</text>
</svg>