<svg xmlns="http://www.w3.org/2000/svg" width="1400" height="940" viewBox="0 0 1400 940">
<defs><linearGradient id="lg" x1="0" y1="0" x2="1" y2="1"><stop offset="0" stop-color="#15c3b6"/><stop offset=".55" stop-color="#2fd191"/><stop offset="1" stop-color="#54e06a"/></linearGradient><linearGradient id="lgh" x1="0" y1="0" x2="1" y2="0"><stop offset="0" stop-color="#15c3b6"/><stop offset=".55" stop-color="#2fd191"/><stop offset="1" stop-color="#54e06a"/></linearGradient><radialGradient id="glow" cx="82%" cy="2%" r="55%"><stop offset="0" stop-color="#2fd191" stop-opacity=".18"/><stop offset="1" stop-color="#2fd191" stop-opacity="0"/></radialGradient></defs>
<rect x="0" y="0" width="1400" height="940" rx="0" fill="#f2f8f5"/>
<rect x="0" y="0" width="1400" height="940" rx="0" fill="url(#glow)"/>
<g transform="translate(54,40) scale(0.3)" fill="none" stroke="url(#lg)" stroke-width="14" stroke-linecap="round"><path d="M43.5 59.7 A20 20 0 1 0 59.7 43.5"/><path d="M56.5 40.3 A20 20 0 1 0 40.3 56.5"/></g>
<text x="96" y="62" font-family="Helvetica Neue, Helvetica, Arial, sans-serif" font-size="21" font-weight="800" fill="#0a1512" letter-spacing="2">LIDHRA</text>
<text x="212" y="62" font-family="Menlo, Consolas, monospace" font-size="14" font-weight="500" fill="#7a8a82">/ app designs</text>
<text x="1346" y="50" font-family="Helvetica Neue, Helvetica, Arial, sans-serif" font-size="26" font-weight="800" fill="#0c1a16" text-anchor="end">Windows 11</text>
<text x="1346" y="74" font-family="Menlo, Consolas, monospace" font-size="13" font-weight="500" fill="#7a8a82" text-anchor="end">Fluent 2 · tray + Mica window</text>
<rect x="54" y="92" width="1292" height="4" rx="2" fill="url(#lgh)"/>
<g><rect x="90" y="150" width="340" height="300" rx="10" fill="#f4f8f6" stroke="#dbe6e0" stroke-width="1"/><rect x="90" y="150" width="340" height="300" rx="10" fill="url(#glow)"/><g transform="translate(106,164) scale(0.16)" fill="none" stroke="url(#lg)" stroke-width="14" stroke-linecap="round"><path d="M43.5 59.7 A20 20 0 1 0 59.7 43.5"/><path d="M56.5 40.3 A20 20 0 1 0 40.3 56.5"/></g><text x="132" y="177" font-family="Helvetica Neue, Helvetica, Arial, sans-serif" font-size="14" font-weight="700" fill="#0c1a16">Lidhra</text><rect x="310" y="161" width="104" height="22" rx="11" fill="#dbf3e8"/><text x="362" y="176" font-family="Menlo, Consolas, monospace" font-size="11" font-weight="600" fill="#0b8f79" text-anchor="middle">↓ 12.4 ↑ 2.1</text><rect x="100" y="198" width="320" height="58" rx="6" fill="#ffffff"/><rect x="110" y="211" width="30" height="30" rx="6" fill="#22bd7a"/><text x="148" y="220" font-family="Helvetica Neue, Helvetica, Arial, sans-serif" font-size="12.5" font-weight="600" fill="#0c1a16">ubuntu-24.04.2-desktop.iso</text><text x="148" y="236" font-family="Menlo, Consolas, monospace" font-size="10.5" font-weight="400" fill="#7a8a82">62% · 14 min</text><text x="410" y="220" font-family="Menlo, Consolas, monospace" font-size="11" font-weight="600" fill="#22bd7a" text-anchor="end">12.4 MB/s</text><rect x="148" y="242" width="252" height="6" rx="3.0" fill="#c9d8d0"/><rect x="148" y="242" width="156.2" height="6" rx="3.0" fill="#22bd7a"/><rect x="100" y="264" width="320" height="58" rx="6" fill="#ffffff"/><rect x="110" y="277" width="30" height="30" rx="6" fill="#11a594"/><text x="148" y="286" font-family="Helvetica Neue, Helvetica, Arial, sans-serif" font-size="12.5" font-weight="600" fill="#0c1a16">debian-13-netinst.iso</text><text x="148" y="302" font-family="Menlo, Consolas, monospace" font-size="10.5" font-weight="400" fill="#7a8a82">Seeding · 3.4</text><text x="410" y="286" font-family="Menlo, Consolas, monospace" font-size="11" font-weight="600" fill="#11a594" text-anchor="end">↑ 2.1</text><rect x="148" y="308" width="252" height="6" rx="3.0" fill="#c9d8d0"/><rect x="148" y="308" width="252.0" height="6" rx="3.0" fill="#11a594"/><rect x="104" y="334" width="312" height="1" fill="#d8e4dd"/><text x="108" y="354" font-family="Helvetica Neue, Helvetica, Arial, sans-serif" font-size="12" font-weight="400" fill="#46584f">Right-click tray → controls</text><rect x="356" y="340" width="58" height="24" rx="5" fill="url(#lgh)"/><text x="385" y="356" font-family="Helvetica Neue, Helvetica, Arial, sans-serif" font-size="12" font-weight="700" fill="#06251b" text-anchor="middle">Open</text><text x="90" y="484" font-family="Helvetica Neue, Helvetica, Arial, sans-serif" font-size="12.5" font-weight="400" fill="#46584f">System-tray flyout — Fluent Acrylic, rounded, above the clock.</text><rect x="520" y="150" width="780" height="470" rx="8" fill="#ffffff" stroke="#d8e4dd" stroke-width="1"/><rect x="520" y="150" width="780" height="40" rx="8" fill="#f6faf8"/><rect x="520" y="174" width="780" height="16" rx="0" fill="#ffffff"/><rect x="520" y="150" width="780" height="470" rx="8" fill="none" stroke="#d8e4dd" stroke-width="1"/><g transform="translate(534,159) scale(0.16)" fill="none" stroke="url(#lg)" stroke-width="14" stroke-linecap="round"><path d="M43.5 59.7 A20 20 0 1 0 59.7 43.5"/><path d="M56.5 40.3 A20 20 0 1 0 40.3 56.5"/></g><text x="560" y="175" font-family="Helvetica Neue, Helvetica, Arial, sans-serif" font-size="13" font-weight="700" fill="#0c1a16">Lidhra</text><text x="1230" y="175" font-family="Helvetica Neue, Helvetica, Arial, sans-serif" font-size="13" font-weight="400" fill="#7a8a82" text-anchor="middle">—</text><text x="1254" y="175" font-family="Helvetica Neue, Helvetica, Arial, sans-serif" font-size="13" font-weight="400" fill="#7a8a82" text-anchor="middle">▢</text><text x="1278" y="175" font-family="Helvetica Neue, Helvetica, Arial, sans-serif" font-size="13" font-weight="400" fill="#7a8a82" text-anchor="middle">✕</text><rect x="520" y="190" width="190" height="430" fill="#f9fcfa"/><line x1="710" y1="190" x2="710" y2="620" stroke="#d8e4dd"/><text x="540" y="216" font-family="Menlo, Consolas, monospace" font-size="10" font-weight="700" fill="#7a8a82" letter-spacing="1.4">LIBRARY</text><rect x="532" y="225" width="166" height="26" rx="7" fill="#dcf1e7"/><text x="542" y="242" font-family="Helvetica Neue, Helvetica, Arial, sans-serif" font-size="12.5" font-weight="600" fill="#0b8f79">◆ Overview</text><text x="690" y="242" font-family="Menlo, Consolas, monospace" font-size="10.5" font-weight="400" fill="#7a8a82" text-anchor="end">12</text><text x="542" y="272" font-family="Helvetica Neue, Helvetica, Arial, sans-serif" font-size="12.5" font-weight="400" fill="#46584f">◆ Transfers</text><text x="690" y="272" font-family="Menlo, Consolas, monospace" font-size="10.5" font-weight="400" fill="#7a8a82" text-anchor="end">3</text><text x="542" y="302" font-family="Helvetica Neue, Helvetica, Arial, sans-serif" font-size="12.5" font-weight="400" fill="#46584f">◆ Seeding</text><text x="690" y="302" font-family="Menlo, Consolas, monospace" font-size="10.5" font-weight="400" fill="#7a8a82" text-anchor="end">7</text><text x="540" y="330" font-family="Menlo, Consolas, monospace" font-size="10" font-weight="700" fill="#7a8a82" letter-spacing="1.4">TOOLS</text><text x="542" y="356" font-family="Helvetica Neue, Helvetica, Arial, sans-serif" font-size="12.5" font-weight="400" fill="#46584f">◆ Activity</text><text x="542" y="386" font-family="Helvetica Neue, Helvetica, Arial, sans-serif" font-size="12.5" font-weight="400" fill="#46584f">◆ Servers</text><rect x="732" y="208" width="64" height="26" rx="6" fill="url(#lgh)"/><text x="764" y="225" font-family="Helvetica Neue, Helvetica, Arial, sans-serif" font-size="12" font-weight="700" fill="#06251b" text-anchor="middle">+ Add</text><rect x="804" y="208" width="74" height="26" rx="6" fill="#eef4f0" stroke="#d8e4dd" stroke-width="1"/><text x="841" y="225" font-family="Helvetica Neue, Helvetica, Arial, sans-serif" font-size="11" font-weight="400" fill="#46584f" text-anchor="middle">Pause all</text><text x="1270" y="225" font-family="Menlo, Consolas, monospace" font-size="11" font-weight="500" fill="#7a8a82" text-anchor="end">↓ 12.4 · ↑ 2.1 MB/s</text><text x="732" y="258" font-family="Helvetica Neue, Helvetica, Arial, sans-serif" font-size="13.5" font-weight="600" fill="#0c1a16">ubuntu-24.04.2-desktop-amd64.iso</text><text x="732" y="275" font-family="Menlo, Consolas, monospace" font-size="11" font-weight="400" fill="#7a8a82">4.7 GB · 62% · 214 peers</text><rect x="732" y="283" width="376" height="6" rx="3.0" fill="#c9d8d0"/><rect x="732" y="283" width="233.1" height="6" rx="3.0" fill="#22bd7a"/><text x="1278" y="264" font-family="Menlo, Consolas, monospace" font-size="12.5" font-weight="600" fill="#22bd7a" text-anchor="end">12.4 MB/s</text><text x="1278" y="282" font-family="Menlo, Consolas, monospace" font-size="11" font-weight="400" fill="#7a8a82" text-anchor="end">14m</text><line x1="732" y1="298" x2="1278" y2="298" stroke="#d8e4dd"/><text x="732" y="316" font-family="Helvetica Neue, Helvetica, Arial, sans-serif" font-size="13.5" font-weight="600" fill="#0c1a16">debian-13-netinst.iso</text><text x="732" y="333" font-family="Menlo, Consolas, monospace" font-size="11" font-weight="400" fill="#7a8a82">631 MB · seeding · ratio 3.4</text><rect x="732" y="341" width="376" height="6" rx="3.0" fill="#c9d8d0"/><rect x="732" y="341" width="376.0" height="6" rx="3.0" fill="#11a594"/><text x="1278" y="322" font-family="Menlo, Consolas, monospace" font-size="12.5" font-weight="600" fill="#11a594" text-anchor="end">↑ 2.1</text><text x="1278" y="340" font-family="Menlo, Consolas, monospace" font-size="11" font-weight="400" fill="#7a8a82" text-anchor="end">∞</text><line x1="732" y1="356" x2="1278" y2="356" stroke="#d8e4dd"/><text x="520" y="654" font-family="Helvetica Neue, Helvetica, Arial, sans-serif" font-size="12.5" font-weight="400" fill="#46584f">Mica-backed window, Fluent controls, native min / max / close.</text></g>
<rect x="54" y="888" width="1292" height="1" fill="#d8e4dd"/>
<text x="54" y="912" font-family="Menlo, Consolas, monospace" font-size="13" font-weight="400" fill="#7a8a82">Lidhra — Windows 11 · Fluent design</text>
<text x="1346" y="912" font-family="Menlo, Consolas, monospace" font-size="12" font-weight="500" fill="#7a8a82" text-anchor="end">04 / 05  ·  Lidhra app designs</text>
</svg>