<svg xmlns="http://www.w3.org/2000/svg" width="1400" height="940" viewBox="0 0 1400 940">
<defs><linearGradient id="lg" x1="0" y1="0" x2="1" y2="1"><stop offset="0" stop-color="#15c3b6"/><stop offset=".55" stop-color="#2fd191"/><stop offset="1" stop-color="#54e06a"/></linearGradient><linearGradient id="lgh" x1="0" y1="0" x2="1" y2="0"><stop offset="0" stop-color="#15c3b6"/><stop offset=".55" stop-color="#2fd191"/><stop offset="1" stop-color="#54e06a"/></linearGradient><radialGradient id="glow" cx="82%" cy="2%" r="55%"><stop offset="0" stop-color="#2fd191" stop-opacity=".18"/><stop offset="1" stop-color="#2fd191" stop-opacity="0"/></radialGradient></defs>
<rect x="0" y="0" width="1400" height="940" rx="0" fill="#f2f8f5"/>
<rect x="0" y="0" width="1400" height="940" rx="0" fill="url(#glow)"/>
<g transform="translate(54,40) scale(0.3)" fill="none" stroke="url(#lg)" stroke-width="14" stroke-linecap="round"><path d="M43.5 59.7 A20 20 0 1 0 59.7 43.5"/><path d="M56.5 40.3 A20 20 0 1 0 40.3 56.5"/></g>
<text x="96" y="62" font-family="Helvetica Neue, Helvetica, Arial, sans-serif" font-size="21" font-weight="800" fill="#0a1512" letter-spacing="2">LIDHRA</text>
<text x="212" y="62" font-family="Menlo, Consolas, monospace" font-size="14" font-weight="500" fill="#7a8a82">/ app designs</text>
<text x="1346" y="50" font-family="Helvetica Neue, Helvetica, Arial, sans-serif" font-size="26" font-weight="800" fill="#0c1a16" text-anchor="end">Linux</text>
<text x="1346" y="74" font-family="Menlo, Consolas, monospace" font-size="13" font-weight="500" fill="#7a8a82" text-anchor="end">libadwaita · GNOME + phosh</text>
<rect x="54" y="92" width="1292" height="4" rx="2" fill="url(#lgh)"/>
<g><rect x="90" y="160" width="700" height="440" rx="12" fill="#ffffff" stroke="#d8e4dd" stroke-width="1"/><rect x="90" y="160" width="700" height="46" rx="12" fill="#f6faf8"/><rect x="90" y="190" width="700" height="16" rx="0" fill="#ffffff"/><rect x="90" y="160" width="700" height="440" rx="12" fill="none" stroke="#d8e4dd" stroke-width="1"/><rect x="104" y="171" width="60" height="24" rx="7" fill="url(#lgh)"/><text x="134" y="187" font-family="Helvetica Neue, Helvetica, Arial, sans-serif" font-size="12" font-weight="700" fill="#06251b" text-anchor="middle">+ Add</text><g transform="translate(388.0,173) scale(0.16)" fill="none" stroke="url(#lg)" stroke-width="14" stroke-linecap="round"><path d="M43.5 59.7 A20 20 0 1 0 59.7 43.5"/><path d="M56.5 40.3 A20 20 0 1 0 40.3 56.5"/></g><text x="414.0" y="189" font-family="Helvetica Neue, Helvetica, Arial, sans-serif" font-size="13" font-weight="700" fill="#0c1a16">Lidhra</text><text x="726" y="189" font-family="Helvetica Neue, Helvetica, Arial, sans-serif" font-size="13" font-weight="400" fill="#7a8a82" text-anchor="middle">☰</text><text x="748" y="189" font-family="Helvetica Neue, Helvetica, Arial, sans-serif" font-size="13" font-weight="400" fill="#7a8a82" text-anchor="middle">▢</text><text x="770" y="189" font-family="Helvetica Neue, Helvetica, Arial, sans-serif" font-size="13" font-weight="400" fill="#7a8a82" text-anchor="middle">✕</text><rect x="110" y="224" width="660" height="356" rx="12" fill="#ffffff" stroke="#d8e4dd" stroke-width="1"/><text x="128" y="254" font-family="Helvetica Neue, Helvetica, Arial, sans-serif" font-size="13.5" font-weight="600" fill="#0c1a16">ubuntu-24.04.2-desktop-amd64.iso</text><text x="128" y="271" font-family="Menlo, Consolas, monospace" font-size="11" font-weight="400" fill="#7a8a82">Downloading · 62% · 214 peers</text><rect x="128" y="279" width="454" height="6" rx="3.0" fill="#c9d8d0"/><rect x="128" y="279" width="281.5" height="6" rx="3.0" fill="#2ec27e"/><text x="752" y="260" font-family="Menlo, Consolas, monospace" font-size="12.5" font-weight="600" fill="#2ec27e" text-anchor="end">12.4 MB/s</text><text x="752" y="278" font-family="Menlo, Consolas, monospace" font-size="11" font-weight="400" fill="#7a8a82" text-anchor="end">14m</text><line x1="110" y1="294" x2="770" y2="294" stroke="#d8e4dd"/><text x="128" y="312" font-family="Helvetica Neue, Helvetica, Arial, sans-serif" font-size="13.5" font-weight="600" fill="#0c1a16">debian-13-netinst.iso</text><text x="128" y="329" font-family="Menlo, Consolas, monospace" font-size="11" font-weight="400" fill="#7a8a82">Seeding · ratio 3.4</text><rect x="128" y="337" width="454" height="6" rx="3.0" fill="#c9d8d0"/><rect x="128" y="337" width="454.0" height="6" rx="3.0" fill="#11a594"/><text x="752" y="318" font-family="Menlo, Consolas, monospace" font-size="12.5" font-weight="600" fill="#11a594" text-anchor="end">↑ 2.1</text><text x="752" y="336" font-family="Menlo, Consolas, monospace" font-size="11" font-weight="400" fill="#7a8a82" text-anchor="end">∞</text><line x1="110" y1="352" x2="770" y2="352" stroke="#d8e4dd"/><text x="128" y="370" font-family="Helvetica Neue, Helvetica, Arial, sans-serif" font-size="13.5" font-weight="600" fill="#0c1a16">archlinux-2026.07.01-x86_64.iso</text><text x="128" y="387" font-family="Menlo, Consolas, monospace" font-size="11" font-weight="400" fill="#7a8a82">Paused · 88%</text><rect x="128" y="395" width="454" height="6" rx="3.0" fill="#c9d8d0"/><rect x="128" y="395" width="399.5" height="6" rx="3.0" fill="#8a94a8"/><text x="752" y="376" font-family="Menlo, Consolas, monospace" font-size="12.5" font-weight="600" fill="#7a8a82" text-anchor="end">—</text><text x="752" y="394" font-family="Menlo, Consolas, monospace" font-size="11" font-weight="400" fill="#7a8a82" text-anchor="end">—</text><text x="90" y="634" font-family="Helvetica Neue, Helvetica, Arial, sans-serif" font-size="12.5" font-weight="400" fill="#46584f">GNOME / libadwaita — header-bar actions, boxed-list rows, green accent (#2EC27E).</text><rect x="880" y="150" width="260" height="520" rx="42" fill="#0c1712"/><rect x="891" y="161" width="238" height="498" rx="32" fill="#151d18"/><rect x="899" y="171" width="28" height="28" rx="8" fill="#ffffff18"/><text x="913" y="190" font-family="Helvetica Neue, Helvetica, Arial, sans-serif" font-size="14" font-weight="400" fill="#fff" text-anchor="middle">☰</text><g transform="translate(970.0,171) scale(0.18)" fill="none" stroke="url(#lg)" stroke-width="14" stroke-linecap="round"><path d="M43.5 59.7 A20 20 0 1 0 59.7 43.5"/><path d="M56.5 40.3 A20 20 0 1 0 40.3 56.5"/></g><text x="996.0" y="189" font-family="Helvetica Neue, Helvetica, Arial, sans-serif" font-size="14" font-weight="700" fill="#fff">Lidhra</text><rect x="1093" y="171" width="28" height="28" rx="8" fill="#ffffff18"/><text x="1107" y="190" font-family="Helvetica Neue, Helvetica, Arial, sans-serif" font-size="16" font-weight="600" fill="#fff" text-anchor="middle">+</text><rect x="905" y="213" width="210" height="64" rx="14" fill="#ffffff10" stroke="#ffffff14" stroke-width="1"/><text x="919" y="237" font-family="Helvetica Neue, Helvetica, Arial, sans-serif" font-size="12.5" font-weight="600" fill="#e6efe9">ubuntu-24.04.2.iso</text><text x="1101" y="237" font-family="Menlo, Consolas, monospace" font-size="10" font-weight="600" fill="#54e06a" text-anchor="end">62%</text><rect x="919" y="247" width="182" height="6" rx="3.0" fill="#26332d"/><rect x="919" y="247" width="112.8" height="6" rx="3.0" fill="#2ec27e"/><text x="919" y="269" font-family="Menlo, Consolas, monospace" font-size="9.5" font-weight="400" fill="#b7c4bd">↓ 12.4 MB/s · 14 min</text><rect x="905" y="285" width="210" height="64" rx="14" fill="#ffffff10" stroke="#ffffff14" stroke-width="1"/><text x="919" y="309" font-family="Helvetica Neue, Helvetica, Arial, sans-serif" font-size="12.5" font-weight="600" fill="#e6efe9">debian-13.iso</text><text x="1101" y="309" font-family="Menlo, Consolas, monospace" font-size="10" font-weight="600" fill="#3ce0c0" text-anchor="end">seed</text><rect x="919" y="319" width="182" height="6" rx="3.0" fill="#26332d"/><rect x="919" y="319" width="182.0" height="6" rx="3.0" fill="#11a594"/><text x="919" y="341" font-family="Menlo, Consolas, monospace" font-size="9.5" font-weight="400" fill="#b7c4bd">↑ 2.1 MB/s · ratio 3.4</text><rect x="905" y="357" width="210" height="64" rx="14" fill="#ffffff10" stroke="#ffffff14" stroke-width="1"/><text x="919" y="381" font-family="Helvetica Neue, Helvetica, Arial, sans-serif" font-size="12.5" font-weight="600" fill="#e6efe9">archlinux.iso</text><text x="1101" y="381" font-family="Menlo, Consolas, monospace" font-size="10" font-weight="600" fill="#9aa8a0" text-anchor="end">paused</text><rect x="919" y="391" width="182" height="6" rx="3.0" fill="#26332d"/><rect x="919" y="391" width="160.2" height="6" rx="3.0" fill="#8a94a8"/><text x="880" y="704" font-family="Helvetica Neue, Helvetica, Arial, sans-serif" font-size="12.5" font-weight="400" fill="#46584f">Linux mobile (phosh) — the same libadwaita view, adaptively collapsed.</text></g>
<rect x="54" y="888" width="1292" height="1" fill="#d8e4dd"/>
<text x="54" y="912" font-family="Menlo, Consolas, monospace" font-size="13" font-weight="400" fill="#7a8a82">Lidhra — Linux desktop + mobile · adaptive libadwaita</text>
<text x="1346" y="912" font-family="Menlo, Consolas, monospace" font-size="12" font-weight="500" fill="#7a8a82" text-anchor="end">05 / 05  ·  Lidhra app designs</text>
</svg>