<svg xmlns="http://www.w3.org/2000/svg" width="1280" height="850" viewBox="0 0 1280 850"><defs>
    <linearGradient id="brand" x1="0" y1="0" x2="1" y2="1">
      <stop offset="0" stop-color="#15C3B6"/><stop offset="0.56" stop-color="#2FD191"/><stop offset="1" stop-color="#54E06A"/>
    </linearGradient>
    <linearGradient id="brandReverse" x1="1" y1="0" x2="0" y2="1">
      <stop offset="0" stop-color="#15C3B6"/><stop offset="0.56" stop-color="#2FD191"/><stop offset="1" stop-color="#54E06A"/>
    </linearGradient>
    <filter id="softShadow" x="-30%" y="-30%" width="160%" height="160%">
      <feDropShadow dx="0" dy="18" stdDeviation="20" flood-color="#06100E" flood-opacity="0.22"/>
    </filter></defs><rect width="100%" height="100%" fill="#F7FBF9"/><text x="60" y="60" font-family="Arial" font-size="34" font-weight="700" fill="#07110F">Lidhra colour language</text><rect x="60" y="110" width="240" height="86" rx="18" fill="#15C3B6"/><text x="60" y="226" font-family="Arial" font-size="22" font-weight="700" fill="#07110F">lidhra-teal</text><text x="60" y="252" font-family="monospace" font-size="18" fill="#62736B">#15C3B6</text><rect x="360" y="110" width="240" height="86" rx="18" fill="#2FD191"/><text x="360" y="226" font-family="Arial" font-size="22" font-weight="700" fill="#07110F">lidhra-green</text><text x="360" y="252" font-family="monospace" font-size="18" fill="#62736B">#2FD191</text><rect x="660" y="110" width="240" height="86" rx="18" fill="#54E06A"/><text x="660" y="226" font-family="Arial" font-size="22" font-weight="700" fill="#07110F">lidhra-lime</text><text x="660" y="252" font-family="monospace" font-size="18" fill="#62736B">#54E06A</text><rect x="960" y="110" width="240" height="86" rx="18" fill="#07110F"/><text x="960" y="226" font-family="Arial" font-size="22" font-weight="700" fill="#07110F">ink-950</text><text x="960" y="252" font-family="monospace" font-size="18" fill="#62736B">#07110F</text><rect x="60" y="260" width="240" height="86" rx="18" fill="#0A1512"/><text x="60" y="376" font-family="Arial" font-size="22" font-weight="700" fill="#07110F">ink-900</text><text x="60" y="402" font-family="monospace" font-size="18" fill="#62736B">#0A1512</text><rect x="360" y="260" width="240" height="86" rx="18" fill="#0C1A16"/><text x="360" y="376" font-family="Arial" font-size="22" font-weight="700" fill="#07110F">ink-800</text><text x="360" y="402" font-family="monospace" font-size="18" fill="#62736B">#0C1A16</text><rect x="660" y="260" width="240" height="86" rx="18" fill="#183027"/><text x="660" y="376" font-family="Arial" font-size="22" font-weight="700" fill="#07110F">ink-700</text><text x="660" y="402" font-family="monospace" font-size="18" fill="#62736B">#183027</text><rect x="960" y="260" width="240" height="86" rx="18" fill="#F7FBF9"/><text x="960" y="376" font-family="Arial" font-size="22" font-weight="700" fill="#07110F">mist-50</text><text x="960" y="402" font-family="monospace" font-size="18" fill="#62736B">#F7FBF9</text><rect x="60" y="410" width="240" height="86" rx="18" fill="#F2F8F5"/><text x="60" y="526" font-family="Arial" font-size="22" font-weight="700" fill="#07110F">mist-100</text><text x="60" y="552" font-family="monospace" font-size="18" fill="#62736B">#F2F8F5</text><rect x="360" y="410" width="240" height="86" rx="18" fill="#E6EFE9"/><text x="360" y="526" font-family="Arial" font-size="22" font-weight="700" fill="#07110F">mist-200</text><text x="360" y="552" font-family="monospace" font-size="18" fill="#62736B">#E6EFE9</text><rect x="660" y="410" width="240" height="86" rx="18" fill="#D8E4DD"/><text x="660" y="526" font-family="Arial" font-size="22" font-weight="700" fill="#07110F">mist-300</text><text x="660" y="552" font-family="monospace" font-size="18" fill="#62736B">#D8E4DD</text><rect x="960" y="410" width="240" height="86" rx="18" fill="#62736B"/><text x="960" y="526" font-family="Arial" font-size="22" font-weight="700" fill="#07110F">text-secondary</text><text x="960" y="552" font-family="monospace" font-size="18" fill="#62736B">#62736B</text><rect x="60" y="560" width="240" height="86" rx="18" fill="#22BD7A"/><text x="60" y="676" font-family="Arial" font-size="22" font-weight="700" fill="#07110F">download</text><text x="60" y="702" font-family="monospace" font-size="18" fill="#62736B">#22BD7A</text><rect x="360" y="560" width="240" height="86" rx="18" fill="#11A594"/><text x="360" y="676" font-family="Arial" font-size="22" font-weight="700" fill="#07110F">seeding</text><text x="360" y="702" font-family="monospace" font-size="18" fill="#62736B">#11A594</text><rect x="660" y="560" width="240" height="86" rx="18" fill="#8A94A8"/><text x="660" y="676" font-family="Arial" font-size="22" font-weight="700" fill="#07110F">paused</text><text x="660" y="702" font-family="monospace" font-size="18" fill="#62736B">#8A94A8</text><rect x="960" y="560" width="240" height="86" rx="18" fill="#E75555"/><text x="960" y="676" font-family="Arial" font-size="22" font-weight="700" fill="#07110F">danger</text><text x="960" y="702" font-family="monospace" font-size="18" fill="#62736B">#E75555</text><rect x="60" y="710" width="240" height="86" rx="18" fill="#F2B84B"/><text x="60" y="826" font-family="Arial" font-size="22" font-weight="700" fill="#07110F">warning</text><text x="60" y="852" font-family="monospace" font-size="18" fill="#62736B">#F2B84B</text></svg>